<?xml version="1.0" encoding="UTF-8"?>
<svg id="Layer_1" data-name="Layer 1" xmlns="http://www.w3.org/2000/svg" version="1.1" viewBox="0 0 1550 500">
  <defs>
    <style>
      .cls-1 {
        fill: #1a4b9d;
      }

      .cls-1, .cls-2 {
        stroke-width: 0px;
      }

      .cls-2 {
        fill: #979797;
      }
    </style>
  </defs>
  <polygon class="cls-1" points="25 50.6 25 450.6 116.1 450.6 116.1 207.7 192.9 450.6 237.5 450.6 312.5 207.7 312.5 450.6 401.8 450.6 401.8 50.6 262.5 50.6 212.5 230.9 164.3 50.6 25 50.6"/>
  <g>
    <path class="cls-2" d="M425,48.8v80.4h66.1s58.9,0,58.9,55.4-58.9,55.4-58.9,55.4h-66.1v33.9l132.2,176.8h107.2l-101.8-148.2s80.4-25,80.4-117.9-67.3-133.9-113.7-133.9-104.2-1.8-104.2-1.8Z"/>
    <path class="cls-2" d="M775.5,285.2l-30.7-100h-.8c1.1,20.3,1.7,33.9,1.7,40.7v59.3h-24.2v-127.5h36.8l30.2,97.5h.5l32-97.5h36.8v127.5h-25.2v-60.3c0-2.8,0-6.1.1-9.9,0-3.7.5-13.6,1.2-29.7h-.8l-32.9,99.9h-24.8Z"/>
    <path class="cls-2" d="M970.4,285.2h-73.4v-127.5h73.4v22.2h-46.4v28h43.2v22.2h-43.2v32.9h46.4v22.3Z"/>
    <path class="cls-2" d="M1046.2,285.2h-27v-105h-34.6v-22.5h96.3v22.5h-34.6v105Z"/>
    <path class="cls-2" d="M1188.2,285.2l-9.2-30.3h-46.5l-9.2,30.3h-29.1l45-128h33.1l45.2,128h-29.1ZM1172.5,232.1c-8.5-27.5-13.4-43.1-14.4-46.7-1.1-3.6-1.8-6.5-2.3-8.5-1.9,7.4-7.4,25.8-16.5,55.2h33.2Z"/>
    <path class="cls-2" d="M1223.7,285.2v-127.5h27v105.2h51.7v22.3h-78.7Z"/>
    <path class="cls-2" d="M748.5,400.6v48.9h-27v-127.5h37.2c17.3,0,30.1,3.2,38.5,9.5,8.3,6.3,12.5,15.9,12.5,28.7s-2.1,14.2-6.2,20c-4.1,5.8-10,10.4-17.5,13.7,19.2,28.7,31.7,47.2,37.5,55.6h-30l-30.4-48.9h-14.4ZM748.5,378.6h8.7c8.5,0,14.9-1.4,18.9-4.3,4.1-2.8,6.1-7.3,6.1-13.4s-2.1-10.3-6.2-12.9c-4.2-2.6-10.6-3.8-19.3-3.8h-8.2v34.4Z"/>
    <path class="cls-2" d="M951.5,385.6c0,21.1-5.2,37.3-15.7,48.7-10.5,11.3-25.5,17-45,17s-34.5-5.7-45-17c-10.5-11.3-15.7-27.6-15.7-48.8s5.2-37.4,15.7-48.6c10.5-11.2,25.5-16.8,45.1-16.8s34.6,5.6,45,16.9c10.4,11.3,15.6,27.5,15.6,48.7ZM858.5,385.6c0,14.2,2.7,25,8.1,32.2,5.4,7.2,13.5,10.8,24.2,10.8,21.6,0,32.4-14.3,32.4-43s-10.7-43.1-32.2-43.1-18.9,3.6-24.3,10.9c-5.5,7.2-8.2,18-8.2,32.2Z"/>
    <path class="cls-2" d="M1090.1,385.6c0,21.1-5.2,37.3-15.7,48.7-10.5,11.3-25.5,17-45,17s-34.5-5.7-45-17c-10.5-11.3-15.7-27.6-15.7-48.8s5.2-37.4,15.7-48.6c10.5-11.2,25.5-16.8,45.1-16.8s34.6,5.6,45,16.9c10.4,11.3,15.6,27.5,15.6,48.7ZM997.1,385.6c0,14.2,2.7,25,8.1,32.2,5.4,7.2,13.5,10.8,24.2,10.8,21.6,0,32.4-14.3,32.4-43s-10.7-43.1-32.2-43.1-18.9,3.6-24.3,10.9c-5.5,7.2-8.2,18-8.2,32.2Z"/>
    <path class="cls-2" d="M1139.6,449.5h-26.6v-127.5h73.1v22.2h-46.5v32.9h43.3v22.1h-43.3v50.4Z"/>
    <path class="cls-2" d="M1218.1,449.5v-127.5h27v127.5h-27Z"/>
    <path class="cls-2" d="M1397.5,449.5h-34.4l-55.5-96.5h-.8c1.1,17,1.7,29.2,1.7,36.5v60h-24.2v-127.5h34.1l55.4,95.5h.6c-.9-16.6-1.3-28.3-1.3-35.1v-60.3h24.3v127.5Z"/>
    <path class="cls-2" d="M1474.4,377.9h50.6v66.1c-8.2,2.7-15.9,4.5-23.2,5.6-7.2,1.1-14.6,1.6-22.2,1.6-19.2,0-33.9-5.7-44.1-17-10.1-11.3-15.2-27.5-15.2-48.7s5.9-36.6,17.7-48.1c11.8-11.5,28.1-17.3,49-17.3s25.7,2.6,37.8,7.8l-9,21.6c-9.3-4.7-19-7-29-7s-21,3.9-28.1,11.8c-7,7.8-10.6,18.4-10.6,31.7s2.8,24.4,8.5,31.7c5.7,7.3,13.9,10.9,24.7,10.9s11.4-.6,17.2-1.7v-26.6h-24.2v-22.5Z"/>
    <path class="cls-2" d="M681.2,67.8c5.6,0,11,1.4,16.4,4.3,5.3,2.9,9.5,7,12.4,12.3,3,5.3,4.5,10.9,4.5,16.7s-1.5,11.2-4.4,16.5c-2.9,5.3-7,9.4-12.3,12.3-5.3,2.9-10.8,4.4-16.5,4.4s-11.3-1.5-16.5-4.4c-5.3-2.9-9.4-7-12.3-12.3-2.9-5.3-4.4-10.8-4.4-16.5s1.5-11.3,4.5-16.7c3-5.3,7.1-9.4,12.5-12.3,5.3-2.9,10.8-4.3,16.4-4.3ZM681.2,73.3c-4.7,0-9.2,1.2-13.6,3.6-4.4,2.4-7.9,5.8-10.4,10.3-2.5,4.5-3.7,9.1-3.7,13.9s1.2,9.4,3.7,13.8c2.5,4.4,5.9,7.8,10.3,10.3,4.4,2.5,9,3.7,13.8,3.7s9.4-1.2,13.8-3.7c4.4-2.5,7.8-5.9,10.3-10.3,2.4-4.4,3.7-9,3.7-13.8s-1.2-9.5-3.7-13.9c-2.5-4.5-5.9-7.9-10.4-10.3-4.4-2.4-9-3.6-13.6-3.6ZM666.7,119.4v-35.8h12.3c4.2,0,7.2.3,9.1,1s3.4,1.8,4.5,3.5c1.1,1.6,1.7,3.4,1.7,5.2s-.9,4.9-2.8,6.8c-1.9,1.9-4.3,3-7.4,3.3,1.3.5,2.3,1.2,3,1.9,1.4,1.4,3.2,3.8,5.3,7.1l4.4,7h-7.1l-3.2-5.6c-2.5-4.4-4.5-7.2-6-8.3-1.1-.8-2.6-1.2-4.6-1.2h-3.4v15.2h-5.8ZM672.4,99.3h7c3.3,0,5.6-.5,6.9-1.5s1.8-2.3,1.8-4-.3-2-.9-2.8c-.6-.8-1.4-1.5-2.4-1.9-1-.4-3-.6-5.8-.6h-6.6v10.8Z"/>
  </g>
</svg>